# xmcd CD database file
#
# Track frame offsets:
#	150
#	16020
#	41483
#	81863
#	105995
#	124064
#	135553
#	147532
#	161249
#
# Disc length: 2495 seconds
#
# Revision: 0
# Processed by: cddbd v1.5.1PL2 Copyright (c) Steve Scherf et al.
# Submitted via: CDex 1.51
#
DISCID=7009bd09
DTITLE=Circle B.z.B. - たびだちのうた
DYEAR=1900
DGENRE=サウンドトラック (一般)
TTITLE0=啓かれた少女
TTITLE1=金属の雲
TTITLE2=J-E-N-O-V-A (Rebirth Style)
TTITLE3=樹海の息吹
TTITLE4=Wish To Mana
TTITLE5=ガーナ軍 -HaRPMoNiCa-
TTITLE6=Zitah-Theme Of Chisse-
TTITLE7=街外れの思い出
TTITLE8=死闘の果てに - Love Tactics Mix -
EXTD=
EXTT0=
EXTT1=
EXTT2=
EXTT3=
EXTT4=
EXTT5=
EXTT6=
EXTT7=
EXTT8=
PLAYORDER=
